<svg width="16" height="16" fill="none" xmlns="http://www.w3.org/2000/svg"><path d="M8.003 0c-3.34 0-4.317.003-4.507.02-.685.056-1.112.164-1.577.396A3.195 3.195 0 001 1.089C.493 1.616.185 2.264.074 3.035c-.055.374-.07.45-.073 2.362-.002.637 0 1.475 0 2.6 0 3.338.003 4.314.02 4.504.055.667.16 1.087.38 1.546a3.37 3.37 0 002.185 1.784c.33.085.694.132 1.162.154.198.009 2.217.015 4.238.015 2.02 0 4.04-.002 4.234-.012.541-.026.856-.068 1.203-.158a3.35 3.35 0 002.184-1.788c.218-.448.328-.884.378-1.516.01-.138.015-2.336.015-4.531 0-2.196-.005-4.39-.016-4.527-.05-.643-.16-1.075-.384-1.532a3.173 3.173 0 00-.685-.938c-.53-.506-1.177-.813-1.948-.925-.374-.054-.448-.07-2.36-.073H8.002z" fill="url(#paint0_radial_131_5)"/><path d="M8.003 0c-3.34 0-4.317.003-4.507.02-.685.056-1.112.164-1.577.396A3.195 3.195 0 001 1.089C.493 1.616.185 2.264.074 3.035c-.055.374-.07.45-.073 2.362-.002.637 0 1.475 0 2.6 0 3.338.003 4.314.02 4.504.055.667.16 1.087.38 1.546a3.37 3.37 0 002.185 1.784c.33.085.694.132 1.162.154.198.009 2.217.015 4.238.015 2.02 0 4.04-.002 4.234-.012.541-.026.856-.068 1.203-.158a3.35 3.35 0 002.184-1.788c.218-.448.328-.884.378-1.516.01-.138.015-2.336.015-4.531 0-2.196-.005-4.39-.016-4.527-.05-.643-.16-1.075-.384-1.532a3.173 3.173 0 00-.685-.938c-.53-.506-1.177-.813-1.948-.925-.374-.054-.448-.07-2.36-.073H8.002z" fill="url(#paint1_radial_131_5)"/><path d="M8 1c-1.9 0-2.14.008-2.886.042-.745.034-1.254.152-1.699.325-.46.18-.85.418-1.24.808-.39.389-.628.78-.808 1.24-.173.445-.291.954-.325 1.699C1.009 5.86 1 6.099 1 8c0 1.901.008 2.139.042 2.886.035.745.153 1.254.325 1.699.18.46.419.85.808 1.24.389.389.78.629 1.24.808.445.173.954.29 1.699.325.746.034.985.042 2.886.042 1.901 0 2.139-.008 2.886-.042.745-.034 1.254-.152 1.7-.325.46-.18.85-.419 1.239-.808.389-.39.628-.78.808-1.24.172-.446.29-.954.325-1.7C14.99 10.14 15 9.902 15 8c0-1.901-.009-2.14-.042-2.886-.035-.746-.153-1.254-.325-1.7a3.46 3.46 0 00-.808-1.24 3.422 3.422 0 00-1.24-.806c-.446-.174-.955-.292-1.7-.326C10.137 1.008 9.9 1 7.997 1H8zm-.627 1.261H8c1.869 0 2.09.007 2.828.04.683.032 1.053.146 1.3.242.327.127.56.278.804.523.245.245.397.479.524.805.096.247.21.617.241 1.3.034.738.041.96.041 2.827 0 1.869-.007 2.09-.04 2.828-.032.683-.146 1.053-.242 1.3a2.172 2.172 0 01-.524.804 2.164 2.164 0 01-.804.523c-.247.096-.617.21-1.3.241-.738.034-.96.041-2.828.041-1.87 0-2.091-.007-2.83-.04-.682-.032-1.052-.146-1.299-.242a2.168 2.168 0 01-.805-.523 2.17 2.17 0 01-.524-.805c-.096-.247-.21-.617-.24-1.3-.034-.737-.041-.96-.041-2.828 0-1.87.007-2.09.04-2.828.031-.683.145-1.053.241-1.3.127-.326.28-.56.524-.805a2.18 2.18 0 01.805-.524c.247-.096.617-.21 1.3-.24.646-.03.896-.039 2.2-.04v.001zm4.364 1.163a.84.84 0 100 1.68.84.84 0 000-1.68zm-3.736.981a3.595 3.595 0 100 7.19 3.595 3.595 0 000-7.19zm0 1.262a2.333 2.333 0 110 4.666 2.333 2.333 0 010-4.666z" fill="#fff"/><defs><radialGradient id="paint0_radial_131_5" cx="0" cy="0" r="1" gradientUnits="userSpaceOnUse" gradientTransform="matrix(0 -15.8572 14.7484 0 4.25 17.232)"><stop stop-color="#FD5"/><stop offset=".1" stop-color="#FD5"/><stop offset=".5" stop-color="#FF543E"/><stop offset="1" stop-color="#C837AB"/></radialGradient><radialGradient id="paint1_radial_131_5" cx="0" cy="0" r="1" gradientUnits="userSpaceOnUse" gradientTransform="matrix(1.39122 6.95036 -28.6497 5.73466 -2.68 1.152)"><stop stop-color="#3771C8"/><stop offset=".128" stop-color="#3771C8"/><stop offset="1" stop-color="#60F" stop-opacity="0"/></radialGradient></defs></svg>