<svg width="174" height="40" fill="none" xmlns="http://www.w3.org/2000/svg"><path d="M16.84 39.48c-2.213 0-4.253-.347-6.12-1.04a14.893 14.893 0 01-4.84-3.04 14.274 14.274 0 01-3.2-4.6c-.747-1.76-1.12-3.693-1.12-5.8 0-2.107.373-4.04 1.12-5.8a13.983 13.983 0 013.24-4.6c1.387-1.307 3.013-2.307 4.88-3 1.867-.72 3.92-1.08 6.16-1.08 2.48 0 4.707.413 6.68 1.24 2 .827 3.68 2.027 5.04 3.6l-4.16 3.84c-1.013-1.067-2.12-1.853-3.32-2.36-1.2-.533-2.507-.8-3.92-.8-1.36 0-2.6.213-3.72.64a8.497 8.497 0 00-2.92 1.84c-.8.8-1.427 1.747-1.88 2.84-.427 1.093-.64 2.307-.64 3.64 0 1.307.213 2.507.64 3.6a9.124 9.124 0 001.88 2.88 8.584 8.584 0 002.88 1.84c1.12.427 2.347.64 3.68.64 1.28 0 2.52-.2 3.72-.6 1.227-.427 2.413-1.133 3.56-2.12l3.68 4.68c-1.52 1.147-3.293 2.027-5.32 2.64-2 .613-4 .92-6 .92zm5.4-4.4V24.56h5.92v11.36l-5.92-.84zm20.58 4.24c-1.787 0-3.387-.347-4.8-1.04-1.387-.693-2.467-1.747-3.24-3.16-.774-1.44-1.16-3.267-1.16-5.48V17.48h6.24v11.24c0 1.787.373 3.107 1.12 3.96.773.827 1.853 1.24 3.24 1.24.96 0 1.813-.2 2.56-.6.746-.427 1.333-1.067 1.76-1.92.426-.88.64-1.973.64-3.28V17.48h6.24V39H49.5v-5.92l1.08 1.72c-.72 1.493-1.787 2.627-3.2 3.4-1.387.747-2.907 1.12-4.56 1.12zM61.2 39V17.48h6.24V39H61.2zm3.12-24.52c-1.146 0-2.08-.333-2.8-1-.72-.667-1.08-1.493-1.08-2.48 0-.987.36-1.813 1.08-2.48.72-.667 1.654-1 2.8-1 1.147 0 2.08.32 2.8.96.72.613 1.08 1.413 1.08 2.4 0 1.04-.36 1.907-1.08 2.6-.693.667-1.626 1-2.8 1zm18.152 24.84c-2.027 0-3.854-.453-5.48-1.36-1.627-.933-2.92-2.227-3.88-3.88-.934-1.653-1.4-3.6-1.4-5.84 0-2.267.466-4.227 1.4-5.88.96-1.653 2.253-2.933 3.88-3.84 1.626-.907 3.453-1.36 5.48-1.36 1.813 0 3.4.4 4.76 1.2 1.36.8 2.413 2.013 3.16 3.64.746 1.627 1.12 3.707 1.12 6.24 0 2.507-.36 4.587-1.08 6.24-.72 1.627-1.76 2.84-3.12 3.64-1.334.8-2.947 1.2-4.84 1.2zm1.08-5.12c1.013 0 1.933-.24 2.76-.72.826-.48 1.48-1.16 1.96-2.04.506-.907.76-1.973.76-3.2 0-1.253-.254-2.32-.76-3.2-.48-.88-1.134-1.56-1.96-2.04-.827-.48-1.747-.72-2.76-.72-1.04 0-1.974.24-2.8.72-.827.48-1.494 1.16-2 2.04-.48.88-.72 1.947-.72 3.2 0 1.227.24 2.293.72 3.2.506.88 1.173 1.56 2 2.04.826.48 1.76.72 2.8.72zm5.64 4.8v-4.4l.12-6.4-.4-6.36V9.32h6.24V39h-5.96zm22.415.32c-2.453 0-4.613-.48-6.48-1.44-1.84-.96-3.267-2.267-4.28-3.92-1.013-1.68-1.52-3.587-1.52-5.72 0-2.16.493-4.067 1.48-5.72a10.587 10.587 0 014.12-3.92c1.733-.96 3.693-1.44 5.88-1.44 2.107 0 4 .453 5.68 1.36 1.707.88 3.053 2.16 4.04 3.84.987 1.653 1.48 3.64 1.48 5.96 0 .24-.013.52-.04.84a96.23 96.23 0 01-.08.84h-17.48v-3.64h14.2l-2.4 1.08c0-1.12-.227-2.093-.68-2.92a4.822 4.822 0 00-1.88-1.92c-.8-.48-1.733-.72-2.8-.72-1.067 0-2.013.24-2.84.72-.8.453-1.427 1.107-1.88 1.96-.453.827-.68 1.813-.68 2.96v.96c0 1.173.253 2.213.76 3.12a5.414 5.414 0 002.2 2.04c.96.453 2.08.68 3.36.68 1.147 0 2.147-.173 3-.52a7.299 7.299 0 002.4-1.56l3.32 3.6c-.987 1.12-2.227 1.987-3.72 2.6-1.493.587-3.213.88-5.16.88zm13.726-.32V26.4h1.098l5.76 9.828h-.576l5.706-9.828h1.098V39h-1.278V28.398h.306l-5.256 9h-.63l-5.292-9h.342V39h-1.278zm20.774.09c-.912 0-1.734-.204-2.466-.612-.72-.42-1.29-.99-1.71-1.71-.42-.732-.63-1.566-.63-2.502 0-.948.21-1.782.63-2.502.42-.72.99-1.284 1.71-1.692.72-.408 1.542-.612 2.466-.612.936 0 1.764.204 2.484.612a4.374 4.374 0 011.71 1.692c.42.72.63 1.554.63 2.502 0 .936-.21 1.77-.63 2.502a4.5 4.5 0 01-1.71 1.71c-.732.408-1.56.612-2.484.612zm0-1.134c.684 0 1.29-.15 1.818-.45a3.31 3.31 0 001.242-1.296c.312-.564.468-1.212.468-1.944 0-.744-.156-1.392-.468-1.944a3.185 3.185 0 00-1.242-1.278c-.528-.312-1.128-.468-1.8-.468-.672 0-1.272.156-1.8.468-.528.3-.948.726-1.26 1.278-.312.552-.468 1.2-.468 1.944 0 .732.156 1.38.468 1.944a3.44 3.44 0 001.26 1.296c.528.3 1.122.45 1.782.45zM155.706 39l-4.194-9.45h1.332l3.852 8.766h-.63l3.906-8.766h1.26L157.02 39h-1.314zm11.076.09c-.984 0-1.848-.204-2.592-.612a4.597 4.597 0 01-1.746-1.71c-.42-.732-.63-1.566-.63-2.502 0-.936.198-1.764.594-2.484.408-.72.96-1.284 1.656-1.692.708-.42 1.5-.63 2.376-.63.888 0 1.674.204 2.358.612.696.396 1.242.96 1.638 1.692.396.72.594 1.554.594 2.502 0 .06-.006.126-.018.198v.198h-8.226v-.954h7.542l-.504.378c0-.684-.15-1.29-.45-1.818a3.166 3.166 0 00-1.188-1.26c-.504-.3-1.086-.45-1.746-.45-.648 0-1.23.15-1.746.45-.516.3-.918.72-1.206 1.26-.288.54-.432 1.158-.432 1.854v.198c0 .72.156 1.356.468 1.908.324.54.768.966 1.332 1.278.576.3 1.23.45 1.962.45.576 0 1.11-.102 1.602-.306a3.332 3.332 0 001.296-.936l.72.828c-.42.504-.948.888-1.584 1.152a5.26 5.26 0 01-2.07.396zM174 8h-12v3h9v9h3V8z" fill="#C4DFE6"/></svg>