<svg width="16" height="19" fill="none" xmlns="http://www.w3.org/2000/svg"><path d="M4.508 16.782H1.572c-.47 0-.94-.264-1.233-.662a1.793 1.793 0 01-.294-1.456L2.57 2.223c.176-.794.763-1.324 1.527-1.324h5.05c1.35 0 2.583.662 3.464 1.854a5.596 5.596 0 01.88 4.235c-.47 2.648-2.583 4.5-4.99 4.5H6.62c-.293 0-.587.265-.645.596l-.881 4.17c-.059.33-.294.53-.587.53z" fill="#000"/><path d="M4.508 16.774H1.572c-.47 0-.94-.264-1.233-.661a1.794 1.794 0 01-.294-1.456L2.57 2.214C2.746 1.42 3.333.891 4.097.891h5.05c1.35 0 2.583.661 3.464 1.853a5.596 5.596 0 01.88 4.235c-.47 2.648-2.583 4.5-4.99 4.5H6.62c-.293 0-.587.266-.645.597l-.881 4.169c-.059.33-.294.53-.587.53z" fill="#01308A"/><path d="M15.017 7v.194c-.57 3.16-3.082 5.419-5.937 5.419H7.653l-.799 3.677c-.228.904-.913 1.484-1.712 1.484H4c.057.258.114.452.285.645.286.387.685.581 1.142.581h2.569a.578.578 0 00.57-.452l.8-3.548c.057-.258.285-.387.514-.387h1.655c2.112 0 3.996-1.613 4.396-3.871.228-1.355-.115-2.774-.914-3.742z" fill="#019CDE"/></svg>