<svg width="23" height="22" fill="none" xmlns="http://www.w3.org/2000/svg"><path d="M17.614 15.585l-.288-1.68 4.76-4.64a.741.741 0 00-.41-1.263l-6.579-.956-2.942-5.961a.74.74 0 00-1.328 0L7.885 7.046l-6.579.956a.741.741 0 00-.41 1.264l4.76 4.64-1.124 6.551a.74.74 0 001.075.781l5.884-3.093 5.884 3.093a.739.739 0 00.78-.056.74.74 0 00.295-.725l-.467-2.723" fill="#939596"/><path d="M6.53 19.858l1.021-5.957c.095-.553-.274-.962-.274-.962L2.893 8.666a.741.741 0 01-.136-.877l-1.459.212a.741.741 0 00-.41 1.264l4.76 4.64-1.124 6.551a.741.741 0 001.075.781l1.235-.649-.01-.006a.74.74 0 01-.295-.724z" fill="#939596" opacity=".2"/><path d="M5.264 22a1.41 1.41 0 01-.83-.272 1.406 1.406 0 01-.563-1.383l1.064-6.203L.428 9.75A1.406 1.406 0 01.07 8.3a1.406 1.406 0 011.142-.962l6.228-.905L10.225.788c.24-.486.726-.788 1.268-.788.543 0 1.029.302 1.269.788l2.785 5.644 6.228.905c.537.078.974.447 1.142.962.167.516.03 1.072-.358 1.45l-4.507 4.393.597 3.48c.063.366-.411-.613-.778-.55-.367.063-.487 1.144-.55.777l-.656-3.828a.673.673 0 01.193-.596l4.76-4.64a.067.067 0 00.018-.07.067.067 0 00-.055-.046l-6.578-.955a.673.673 0 01-.507-.369l-2.942-5.96c-.023-.047-.098-.046-.12 0L8.49 7.344a.673.673 0 01-.507.369l-6.578.956a.068.068 0 00-.038.115l4.76 4.64a.673.673 0 01.194.596l-1.124 6.551a.068.068 0 00.027.066c.02.015.049.017.071.005l5.884-3.093a.673.673 0 01.627 0l5.883 3.093c.02.01.04.018.072-.005a.067.067 0 00.027-.066l-.468-2.723a.673.673 0 111.328-.228l.467 2.724a1.405 1.405 0 01-.563 1.383 1.405 1.405 0 01-1.49.107l-5.57-2.928-5.57 2.928a1.41 1.41 0 01-.66.165z" fill="#939596"/></svg>