<svg width="27" height="27" fill="none" xmlns="http://www.w3.org/2000/svg"><path d="M20.689 19.123l-.339-2.061 5.592-5.695a.938.938 0 00.22-.932.882.882 0 00-.702-.619l-7.727-1.173-3.456-7.316a.867.867 0 00-.78-.507.867.867 0 00-.78.507L9.26 8.643 1.534 9.816c-.327.05-.6.29-.702.619a.938.938 0 00.22.932l5.591 5.695-1.32 8.04a.929.929 0 00.346.89c.268.203.624.23.917.069l6.91-3.796 6.912 3.796a.838.838 0 00.916-.07.929.929 0 00.347-.889l-.55-3.342" fill="#C4DFE6"/><path d="M6.182 27a1.61 1.61 0 01-.974-.333 1.762 1.762 0 01-.661-1.698l1.25-7.613-5.294-5.39a1.78 1.78 0 01-.42-1.78c.196-.633.71-1.086 1.34-1.182l7.316-1.11L12.01.967C12.292.371 12.863 0 13.5 0s1.208.37 1.49.968l3.271 6.926 7.315 1.11c.63.096 1.145.549 1.341 1.182a1.779 1.779 0 01-.42 1.779l-5.293 5.391.7 4.27c.074.45-.482-.752-.913-.675-.431.078-.572 1.404-.646.955l-.77-4.699a.85.85 0 01.227-.731l5.59-5.695a.085.085 0 00.02-.085.08.08 0 00-.063-.056l-7.727-1.173a.794.794 0 01-.595-.452L13.57 1.699c-.027-.057-.116-.056-.142 0L9.973 9.015a.794.794 0 01-.595.452L1.65 10.64a.08.08 0 00-.064.056.087.087 0 00.02.085l5.591 5.695a.85.85 0 01.228.731l-1.32 8.04a.085.085 0 00.031.082.08.08 0 00.084.006l6.91-3.796a.761.761 0 01.737 0l6.91 3.796c.023.012.048.022.084-.006a.084.084 0 00.032-.082l-.549-3.341c-.073-.45.216-.877.646-.954.432-.078.84.224.913.674l.55 3.343a1.761 1.761 0 01-.662 1.697 1.603 1.603 0 01-1.75.132L13.5 23.204l-6.543 3.594c-.245.135-.51.202-.775.202z" fill="#231F20"/></svg>