<svg width="15" height="17" fill="none" xmlns="http://www.w3.org/2000/svg"><path d="M.563 14.17l.053.153a2.605 2.605 0 01-.053-.152zm2.15-3.476c.097-.826.422-1.287 1.032-1.76.875-.64 1.965-.28 1.965-.28v-2.15c.266-.007.53.01.793.05V9.32s-1.09-.361-1.966.279c-.61.474-.935.934-1.03 1.76-.004.447.075 1.034.447 1.538a3.713 3.713 0 01-.282-.17c-.812-.57-.962-1.428-.958-2.034zm8.301-8.168a3.81 3.81 0 01-.911-1.87h.755s-.149 1.28.948 2.536l.017.017a4.206 4.206 0 01-.809-.683zm3.643 1.949v2.711s-.964-.04-1.68-.228c-.998-.265-1.638-.673-1.638-.673s-.444-.292-.477-.312v5.602c0 .312-.083 1.09-.332 1.74-.325.85-.829 1.41-.921 1.522 0 0-.614.756-1.69 1.263-.972.457-1.827.447-2.083.457 0 0-1.475.06-2.804-.838a5.568 5.568 0 01-.802-.673l.006.007c1.33.901 2.805.838 2.805.838.255-.01 1.11 0 2.082-.457a5.217 5.217 0 001.69-1.263c.093-.113.597-.673.922-1.522.248-.65.331-1.428.331-1.74V5.31c.037.02.477.312.477.312s.64.408 1.638.673c.716.189 1.68.228 1.68.228V4.4c.332.076.614.096.796.076z" fill="#EE1D52"/><path d="M13.862 4.395V6.52s-.964-.04-1.68-.229c-.998-.265-1.638-.672-1.638-.672s-.444-.292-.477-.312v5.602c0 .312-.083 1.09-.332 1.74-.325.849-.828 1.41-.921 1.522 0 0-.614.756-1.69 1.263-.972.457-1.827.447-2.083.457 0 0-1.475.06-2.804-.838l-.007-.007a5.593 5.593 0 01-.394-.448 5.42 5.42 0 01-.75-1.359v-.003c-.105-.315-.324-1.077-.294-1.81.053-1.296.49-2.095.606-2.294a5.412 5.412 0 011.177-1.438 4.938 4.938 0 011.4-.83A4.67 4.67 0 015.71 6.5v2.152s-1.09-.362-1.966.278c-.61.474-.934.935-1.03 1.76-.004.607.145 1.465.96 2.039.097.063.19.12.282.169.143.192.315.361.514.5.8.527 1.465.564 2.32.223.57-.23.998-.743 1.197-1.316.126-.358.123-.716.123-1.088V.657h1.99a3.78 3.78 0 00.911 1.869c.242.258.514.49.81.683.085.096.533.56 1.11.848.295.15.61.262.931.338z" fill="#fff"/><path d="M.297 12.586l.05.143a1.592 1.592 0 01-.05-.143z" fill="#69C9D0"/><path d="M3.978 6.883c-.51.195-.981.477-1.399.828a5.364 5.364 0 00-1.177 1.442c-.116.2-.553.995-.606 2.294-.03.736.192 1.495.295 1.81v.003c.066.18.324.82.749 1.36.122.155.255.304.394.447a5.584 5.584 0 01-1.19-1.114 5.31 5.31 0 01-.746-1.352v-.007c-.106-.315-.328-1.077-.295-1.813.053-1.296.49-2.095.607-2.294a5.364 5.364 0 011.177-1.442 4.939 4.939 0 011.399-.829c.318-.132.65-.228.987-.291a4.912 4.912 0 011.545-.024v.617c-.6.01-1.19.133-1.74.365z" fill="#69C9D0"/><path d="M10.103.666H8.114v10.561c0 .372 0 .73-.122 1.088-.202.57-.63 1.087-1.197 1.316-.855.344-1.525.304-2.32-.223a2.155 2.155 0 01-.514-.497c.68.362 1.286.355 2.039.053.57-.229.997-.746 1.196-1.316.126-.358.123-.716.123-1.087V0h2.748c-.004 0-.033.262.036.666zm3.76 3.153v.586a4.235 4.235 0 01-.932-.338c-.574-.285-1.021-.752-1.11-.848.102.066.205.126.314.182.703.348 1.39.454 1.727.418z" fill="#69C9D0"/></svg>