<svg width="16" height="15" fill="none" xmlns="http://www.w3.org/2000/svg"><g clip-path="url(#clip0_132_100)" fill-rule="evenodd" clip-rule="evenodd"><path d="M2.93.074L.011 6.678a.137.137 0 00.025.15l7.88 8.136A.116.116 0 008 15c.03 0 .06-.013.083-.036l7.879-8.136a.137.137 0 00.026-.15L13.07.074a.124.124 0 00-.043-.054.112.112 0 00-.064-.02H3.038a.112.112 0 00-.065.02.124.124 0 00-.044.054z" fill="#50AF95"/><path d="M9.014 7.36c-.057.004-.35.022-1.001.022-.519 0-.887-.016-1.016-.023-2.004-.095-3.5-.47-3.5-.92 0-.451 1.496-.826 3.5-.923v1.469c.131.01.506.034 1.025.034.622 0 .934-.028.99-.034V5.517c2 .096 3.492.472 3.492.921 0 .45-1.492.825-3.492.92l.002.001zm0-1.995V4.051h2.79V2.047H4.207V4.05h2.79v1.314c-2.268.112-3.974.596-3.974 1.176S4.73 7.605 6.997 7.718v4.211h2.016V7.716c2.263-.112 3.966-.596 3.966-1.175 0-.58-1.702-1.064-3.966-1.176z" fill="#fff"/></g><defs><clipPath id="clip0_132_100"><path fill="#fff" d="M0 0h16v15H0z"/></clipPath></defs></svg>