<svg width="16" height="19" fill="none" xmlns="http://www.w3.org/2000/svg"><g clip-path="url(#clip0_132_97)"><path d="M15.782 5.724c-.789-.822-1.88-2.078-2.77-2.969l-.052-.041a.98.98 0 00-.292-.184C10.524 2.078.548-.026.352 0A.344.344 0 00.2.066L.15.11a.68.68 0 00-.137.25L0 .397v.244c1.123 3.53 5.558 15.093 6.431 17.806.053.184.153.534.34.552h.042c.1 0 .526-.635.526-.635s7.617-10.426 8.388-11.537c.1-.136.188-.284.263-.439a.803.803 0 00-.026-.363.725.725 0 00-.182-.302zM9.293 6.938l3.251-3.043 1.907 1.983-5.158 1.06zM8.031 6.74L2.433 1.562l9.057 1.885-3.46 3.292zm.505 1.357l5.729-1.042-6.55 8.906.82-7.864zM1.673 2.078l5.89 5.641-.853 8.247L1.673 2.078z" fill="#FF060A"/></g><defs><clipPath id="clip0_132_97"><path fill="#fff" d="M0 0h16v19H0z"/></clipPath></defs></svg>