<svg width="16" height="14" fill="none" xmlns="http://www.w3.org/2000/svg"><path d="M5.032 14c6.037 0 9.34-5.387 9.34-10.058 0-.153 0-.305-.01-.457A6.984 6.984 0 0016 1.655a6.19 6.19 0 01-1.886.556A3.514 3.514 0 0015.558.256a6.301 6.301 0 01-2.085.858C12.23-.309 10.15-.378 8.83.961c-.853.863-1.215 2.15-.95 3.377-2.641-.142-5.1-1.485-6.766-3.693C.242 2.26.687 4.326 2.13 5.364A3.084 3.084 0 01.64 4.92v.045c0 1.683 1.102 3.132 2.634 3.465-.484.142-.99.163-1.483.061.43 1.44 1.663 2.427 3.067 2.455-1.162.984-2.598 1.518-4.077 1.516a6.21 6.21 0 01-.781-.05 8.817 8.817 0 005.032 1.585" fill="#1DA1F2"/></svg>